<svg width="638" height="742" viewBox="0 0 638 742" fill="none" xmlns="http://www.w3.org/2000/svg">
<g style="mix-blend-mode:overlay">
<path d="M729.157 227.78C734.699 190.301 730.383 152.228 716.707 117.951C703.031 83.6742 680.552 54.5895 651.861 34.05C623.171 13.5106 589.436 2.35277 554.548 1.86304C519.66 1.3733 485.038 11.5716 454.675 31.2821C410.612 59.9252 360.331 74.1816 309.616 75.7117C236.05 78.1937 164.897 109.095 109.053 162.815C53.2081 216.535 16.3674 289.518 5.20779 368.538C-20.3546 549.913 95.1771 716.024 262.042 738.183C419.953 759.161 567.588 644.846 606.366 482.156C619.148 428.477 643.416 378.144 678.939 337.534C705.619 307.098 723.166 268.748 729.157 227.78V227.78Z" stroke="#2494CA" stroke-width="2.12822" stroke-miterlimit="10"/>
</g>
</svg>
